<svg xmlns="http://www.w3.org/2000/svg" xmlns:xlink="http://www.w3.org/1999/xlink" viewBox="0 0 1027.14894 314.7234"><defs><style>.cls-1{fill:#fff;}.cls-2{fill:url(#linear-gradient);}.cls-3{fill:url(#linear-gradient-2);}.cls-4{fill:url(#linear-gradient-3);}.cls-5{fill:url(#linear-gradient-4);}</style><linearGradient id="linear-gradient" x1="658.08176" y1="157.55901" x2="1026.62175" y2="157.55901" gradientUnits="userSpaceOnUse"><stop offset="0.10146" stop-color="#d4332f"/><stop offset="0.12295" stop-color="#d4372f"/><stop offset="0.67498" stop-color="#df9030"/><stop offset="0.92464" stop-color="#e3b430"/></linearGradient><linearGradient id="linear-gradient-2" x1="629.26569" y1="118.88215" x2="738.96729" y2="118.88215" xlink:href="#linear-gradient"/><linearGradient id="linear-gradient-3" x1="629.26569" y1="185.06654" x2="790.32263" y2="185.06654" xlink:href="#linear-gradient"/><linearGradient id="linear-gradient-4" x1="642.09962" y1="151.53279" x2="768.31572" y2="151.53279" xlink:href="#linear-gradient"/></defs><title>logoAgustin_blanco</title><g id="OBJECTS"><path class="cls-1" d="M149.4022,143.93563H67.05437L44.06712,181.82639H.367L114.79631,5.00856h40.41521l43.44661,176.81783H157.736Zm-6.81979-31.06754L127.6789,44.66677,85.99975,112.86809Z"/><path class="cls-1" d="M395.747,141.9147l15.914,18.18839-26.27212,24.7547L369.22136,166.6694a102.92086,102.92086,0,0,1-59.10712,18.18839q-18.44015,0-32.71169-5.43254-14.27327-5.42568-22.23025-15.407a36.74364,36.74364,0,0,1-7.957-23.6175,46.06885,46.06885,0,0,1,12.5058-31.9547q12.50067-13.7646,36.75356-25.385-11.11855-14.90008-11.11512-30.314,0-15.15186,7.957-26.52217A51.132,51.132,0,0,1,314.78636,8.797a72.30316,72.30316,0,0,1,29.93377-6.0628q21.21978,0,34.47915,9.59771,13.26108,9.60287,13.2628,26.52217a39.46062,39.46062,0,0,1-10.98839,27.91283q-10.99011,11.74539-32.96517,22.10352l26.27211,29.55356a121.05407,121.05407,0,0,0,14.65005-27.7861l30.0605,9.85118A160.41221,160.41221,0,0,1,395.747,141.9147Zm-46.478,1.76746L314.1561,103.77389q-14.14995,6.81809-20.83957,13.76632a22.43152,22.43152,0,0,0-6.69305,16.04072,17.736,17.736,0,0,0,7.45,14.77678q7.45,5.68258,21.09305,5.68258Q332.84629,154.04029,349.26894,143.68216Zm-21.85-108.87q-5.93949,5.30753-5.93606,14.14653a20.61327,20.61327,0,0,0,2.14424,8.84072,57.74969,57.74969,0,0,0,7.2,10.86165q16.164-7.32161,22.23025-13.25937,6.06279-5.93435,6.06279-13.26279a11.264,11.264,0,0,0-4.29533-9.0942q-4.30047-3.53491-11.61865-3.53491Q333.35153,29.50979,327.4189,34.81216Z"/><path class="cls-1" d="M502.15415,5.00856h41.1722L514.52979,148.48444h88.6641l-6.81979,33.342H466.79126Z"/><path class="cls-1" d="M80.87309,275.72472a29.04641,29.04641,0,0,1-10.56424-5.12663l4.16924-6.72333a28.23358,28.23358,0,0,0,9.56936,4.91731,39.86,39.86,0,0,0,11.94319,1.806q8.14877,0,13.03062-2.64747,4.87954-2.64745,4.88185-7.35543a5.38561,5.38561,0,0,0-1.89721-4.2031,14.34271,14.34271,0,0,0-4.64123-2.68851q-2.75559-1.00973-7.77395-2.356a98.761,98.761,0,0,1-10.2357-3.19337,17.90968,17.90968,0,0,1-6.67726-4.49864,11.0246,11.0246,0,0,1-2.79955-7.86029,14.45072,14.45072,0,0,1,3.50753-9.66632,22.288,22.288,0,0,1,9.76371-6.3457,42.48079,42.48079,0,0,1,14.30776-2.2288,50.914,50.914,0,0,1,11.70257,1.30526,35.24876,35.24876,0,0,1,9.62026,3.65309l-3.7898,6.89572a28.51273,28.51273,0,0,0-8.29221-3.53,39.07659,39.07659,0,0,0-9.71281-1.178q-8.15569,0-12.98434,2.81575-4.83094,2.81986-4.83558,7.52372a5.67222,5.67222,0,0,0,1.94349,4.37139,13.871,13.871,0,0,0,4.83558,2.77471q2.88747,1.00972,7.91277,2.35193,6.25386,1.687,10.09225,3.15233a17.46266,17.46266,0,0,1,6.53844,4.33035,10.33356,10.33356,0,0,1,2.70237,7.39647,14.44575,14.44575,0,0,1-3.5538,9.75252,22.61518,22.61518,0,0,1-9.90253,6.3457,43.99516,43.99516,0,0,1-14.59466,2.22879A50.34051,50.34051,0,0,1,80.87309,275.72472Z"/><path class="cls-1" d="M189.05128,232.51977,179.10247,277.071h-8.71792l1.23087-5.7177a22.32911,22.32911,0,0,1-8.00994,4.66693,30.94943,30.94943,0,0,1-9.99508,1.55564q-8.34311,0-13.17406-3.95273-4.831-3.94656-4.831-11.01262a25.62407,25.62407,0,0,1,.56454-5.12664l5.59447-24.96414h9.09737l-5.59447,25.05034a19.16919,19.16919,0,0,0-.472,3.78033,8.0439,8.0439,0,0,0,2.8921,6.68228q2.88746,2.315,8.57448,2.315a19.33361,19.33361,0,0,0,11.98946-3.61615q4.78236-3.6141,6.395-10.594l5.30757-23.61783Z"/><path class="cls-1" d="M243.06633,234.40788A17.72579,17.72579,0,0,1,253.774,251.26545a25.15767,25.15767,0,0,1-3.69725,13.53285,25.78351,25.78351,0,0,1-10.1848,9.37078,30.86139,30.86139,0,0,1-14.54839,3.40682,27.16389,27.16389,0,0,1-11.08713-2.06051,15.5187,15.5187,0,0,1-7.10761-6.00912l-5.30757,23.87231H192.7439L206.39,232.51977h8.71793l-1.23088,5.54531q7.01043-5.966,17.72275-5.96808A27.17729,27.17729,0,0,1,243.06633,234.40788Zm-8.05621,33.711a17.875,17.875,0,0,0,7.01506-6.68228,18.69171,18.69171,0,0,0,2.55892-9.75251q0-5.966-3.887-9.24765-3.887-3.27546-11.08713-3.27547a21.13156,21.13156,0,0,0-10.09225,2.393,17.45421,17.45421,0,0,0-7.01506,6.68228,18.939,18.939,0,0,0-2.51265,9.75252,11.41134,11.41134,0,0,0,3.93324,9.2066q3.93556,3.31856,11.04086,3.32062A20.87183,20.87183,0,0,0,235.01012,268.11891Z"/><path class="cls-1" d="M269.88645,257.31562v.50487q0,6.22461,3.98415,9.457,3.9772,3.23853,11.93857,3.23853a26.90441,26.90441,0,0,0,8.71792-1.38736,20.54816,20.54816,0,0,0,6.82534-3.74339l3.88235,5.79979a26.77574,26.77574,0,0,1-9.00019,4.708,36.70066,36.70066,0,0,1-11.18431,1.68289,31.82208,31.82208,0,0,1-12.79462-2.356,18.76784,18.76784,0,0,1-8.33849-6.72332,17.96066,17.96066,0,0,1-2.93836-10.25738,25.00277,25.00277,0,0,1,13.7895-22.7805A31.15635,31.15635,0,0,1,289.3167,232.097q10.23106,0,16.34842,5.17179,6.10811,5.16563,6.11273,14.07875a30.172,30.172,0,0,1-.66633,5.96808Zm7.48706-15.12953a16.502,16.502,0,0,0-6.53845,9.24765h32.41q.38175-5.97219-3.5538-9.2887-3.92862-3.32472-10.754-3.32061A19.74514,19.74514,0,0,0,277.37351,242.18609Z"/><path class="cls-1" d="M344.37291,233.77988a36.01743,36.01743,0,0,1,11.75347-1.68288l-1.7075,7.81925c-.56916-.05747-1.36044-.0862-2.3692-.0862q-15.63813,0-18.95362,14.96535L328.07538,277.071H318.978l9.9488-44.55126h8.71793l-1.4206,6.64123A19.24179,19.24179,0,0,1,344.37291,233.77988Z"/><path class="cls-1" d="M441.936,235.92248q4.78236,3.82342,4.78468,10.88538a29.26755,29.26755,0,0,1-.66172,5.29493L440.46909,277.071h-9.09737l5.58983-24.96824a20.44693,20.44693,0,0,0,.472-3.86653,8.12443,8.12443,0,0,0-2.74864-6.64123q-2.74865-2.26574-8.33849-2.26984-7.01043,0-11.51284,3.4889-4.50473,3.491-6.11273,10.46672L403.31609,277.071h-9.09737l5.687-24.96824a19.22486,19.22486,0,0,0,.47661-3.78033,8.17156,8.17156,0,0,0-2.79954-6.68228q-2.7903-2.315-8.38476-2.315-7.01738,0-11.51285,3.53405-4.50473,3.5279-6.11273,10.67605L366.2649,277.071h-9.09737l9.9488-44.55126h8.71793l-1.23087,5.54531q6.63561-5.966,17.43585-5.96808a22.86866,22.86866,0,0,1,10.046,2.01946,12.60511,12.60511,0,0,1,6.06645,5.88188q7.67677-7.89929,20.4714-7.90134Q437.14666,232.097,441.936,235.92248Z"/><path class="cls-1" d="M466.43315,257.31562v.50487q0,6.22461,3.98414,9.457,3.97722,3.23853,11.93857,3.23853a26.90441,26.90441,0,0,0,8.71792-1.38736,20.54821,20.54821,0,0,0,6.82535-3.74339l3.88234,5.79979a26.77574,26.77574,0,0,1-9.00019,4.708A36.70066,36.70066,0,0,1,481.597,277.5759a31.82211,31.82211,0,0,1-12.79462-2.356,18.76784,18.76784,0,0,1-8.33849-6.72332,17.96073,17.96073,0,0,1-2.93836-10.25738,25.00282,25.00282,0,0,1,13.7895-22.7805,31.15638,31.15638,0,0,1,14.54839-3.36166q10.23107,0,16.34843,5.17179,6.10809,5.16563,6.11273,14.07875a30.172,30.172,0,0,1-.66634,5.96808Zm7.48705-15.12953a16.502,16.502,0,0,0-6.53845,9.24765h32.41q.38176-5.97219-3.5538-9.2887-3.92862-3.32472-10.754-3.32061A19.74517,19.74517,0,0,0,473.9202,242.18609Z"/><path class="cls-1" d="M540.9196,233.77988a36.01743,36.01743,0,0,1,11.75347-1.68288l-1.70749,7.81925c-.56917-.05747-1.36044-.0862-2.36921-.0862q-15.63813,0-18.95362,14.96535L524.62207,277.071H515.5247l9.9488-44.55126h8.71793l-1.42059,6.64123A19.2417,19.2417,0,0,1,540.9196,233.77988Z"/><path class="cls-1" d="M564.42191,275.17881a19.16046,19.16046,0,0,1-8.33848-6.72332,17.61388,17.61388,0,0,1-2.93837-10.13014,24.57027,24.57027,0,0,1,3.7898-13.45075,26.12691,26.12691,0,0,1,10.52259-9.37079,33.30846,33.30846,0,0,1,15.25637-3.40681q14.87463,0,20.66112,9.66632l-7.67677,3.78443q-3.98415-6.38469-13.64606-6.38675a21.13159,21.13159,0,0,0-10.09225,2.393,17.75428,17.75428,0,0,0-7.06133,6.68228,18.65853,18.65853,0,0,0-2.55893,9.75252,11.3973,11.3973,0,0,0,3.93325,9.2066q3.92862,3.31856,11.1334,3.32062a22.29549,22.29549,0,0,0,8.48194-1.6008,16.09146,16.09146,0,0,0,6.49217-4.70386l6.63562,4.2031a23.49912,23.49912,0,0,1-9.38427,6.72333,32.57413,32.57413,0,0,1-12.6049,2.43813A30.87184,30.87184,0,0,1,564.42191,275.17881Z"/><path class="cls-1" d="M663.8359,232.51977,653.88247,277.071h-8.71793l1.23088-5.46321a24.71668,24.71668,0,0,1-7.91277,4.41244,29.79165,29.79165,0,0,1-9.80536,1.55564,27.184,27.184,0,0,1-11.4712-2.31089,17.85851,17.85851,0,0,1-10.70769-16.93966,25.1476,25.1476,0,0,1,3.69726-13.53284,25.5022,25.5022,0,0,1,10.18942-9.33385,31.15077,31.15077,0,0,1,14.54376-3.36166,27.32881,27.32881,0,0,1,11.04086,2.01946,15.31238,15.31238,0,0,1,7.06134,5.96808l1.70749-7.56477Zm-23.0766,35.59914a17.47139,17.47139,0,0,0,7.01044-6.68228,18.92847,18.92847,0,0,0,2.51265-9.75251q0-5.966-3.887-9.24765-3.887-3.27546-11.08714-3.27547a20.86961,20.86961,0,0,0-10.046,2.393,17.83216,17.83216,0,0,0-7.01044,6.68228,18.65862,18.65862,0,0,0-2.55892,9.75252,11.3973,11.3973,0,0,0,3.93325,9.2066q3.92862,3.31856,11.04085,3.32062A21.15995,21.15995,0,0,0,640.7593,268.11891Z"/><path class="cls-1" d="M732.53816,214.69763,718.51267,277.071h-8.71793l1.23087-5.46321a24.71668,24.71668,0,0,1-7.91277,4.41244,29.79154,29.79154,0,0,1-9.80535,1.55564,27.184,27.184,0,0,1-11.4712-2.31089,17.85851,17.85851,0,0,1-10.70769-16.93966,25.14768,25.14768,0,0,1,3.69725-13.53284,25.50223,25.50223,0,0,1,10.18943-9.33385A31.15074,31.15074,0,0,1,699.559,232.097a27.594,27.594,0,0,1,11.138,2.0605,14.978,14.978,0,0,1,7.05671,6.00913l5.687-25.469ZM705.3895,268.11891a17.47145,17.47145,0,0,0,7.01044-6.68228,18.92847,18.92847,0,0,0,2.51265-9.75251q0-5.966-3.887-9.24765-3.887-3.27546-11.08713-3.27547a20.86959,20.86959,0,0,0-10.046,2.393,17.83216,17.83216,0,0,0-7.01044,6.68228,18.65862,18.65862,0,0,0-2.55892,9.75252,11.39732,11.39732,0,0,0,3.93324,9.2066q3.92862,3.31856,11.04086,3.32062A21.15995,21.15995,0,0,0,705.3895,268.11891Z"/><path class="cls-1" d="M746.9431,275.17881a19.11467,19.11467,0,0,1-8.24593-6.76437,17.66659,17.66659,0,0,1-2.93837-10.08909,24.57036,24.57036,0,0,1,3.7898-13.45075,26.12691,26.12691,0,0,1,10.52259-9.37079A33.09539,33.09539,0,0,1,765.235,232.097a30.38806,30.38806,0,0,1,12.41055,2.356,18.66137,18.66137,0,0,1,8.19967,6.68228,17.83068,17.83068,0,0,1,2.89209,10.13014,24.77148,24.77148,0,0,1-3.79443,13.4918,26.0791,26.0791,0,0,1-10.47169,9.41183,32.8,32.8,0,0,1-15.11293,3.40682A29.93485,29.93485,0,0,1,746.9431,275.17881Zm23.0766-7.0599a17.47143,17.47143,0,0,0,7.01043-6.68228,18.92847,18.92847,0,0,0,2.51265-9.75251q0-5.966-3.887-9.24765-3.887-3.27546-11.08713-3.27547a20.86965,20.86965,0,0,0-10.046,2.393,17.83207,17.83207,0,0,0-7.01043,6.68228,18.65862,18.65862,0,0,0-2.55893,9.75252,11.3973,11.3973,0,0,0,3.93325,9.2066q3.92862,3.31856,11.04086,3.32062A21.16,21.16,0,0,0,770.0197,268.11891Z"/><path class="cls-2" d="M1002.79486,255.88456h-180.587l19.494-44.04008H984.26327l42.35848-134.135S822.109,76.36834,770.80746,76.02429L749.815,4.653l-3.97131-.05024c-9.8212-.12262-20.27466-.235-30.18377-.30935a9.42451,9.42451,0,0,0-7.27733-3.469h-40.814a9.48657,9.48657,0,1,0,0,18.97314h40.814a9.4467,9.4467,0,0,0,8.16241-4.72784c8.68725.06346,17.48786.14939,25.19418.23962l17.83522,60.63822c-.18409-.00132-.30968-.00231-.33975-.00264l2.101,5.99167,1.34448,4.57051.234-.06907,43.97364,125.4064h23.05253l-24.25391,54.795h28.599a27.43918,27.43918,0,1,0,36.98021,0h73.32852a27.43917,27.43917,0,1,0,36.98022,0h21.22055a5.37744,5.37744,0,1,0,0-10.75487ZM787.8346,125.00471h38.99132v32.0435H799.07068Zm49.74619,0h51.45853v32.0435H837.58079Zm113.67292,32.0435H899.79419v-32.0435h51.45952Zm10.75487-32.0435h38.39906l-10.119,32.0435H962.00858Zm-10.75487,42.79871v33.28586H899.79419V167.80342Zm-51.45952-53.55391V87.63185c17.73045.11667,35.29532.232,51.45952.33811v26.27955Zm-10.75487,0H837.58079V87.222c16.24286.10708,33.8031.22276,51.45853.3391Zm0,53.55391v33.28586H837.58079V167.80342Zm87.34181,33.28586H962.00858V167.80342h24.88384Zm27.42308-86.83977H962.00858V88.04068c20.66663.13584,38.31677.25152,49.96829.32786ZM826.82592,87.151v27.09854H784.06324L774.43935,86.804C786.62992,86.88525,805.19323,87.0082,826.82592,87.151Zm-23.98421,80.65245h23.98421v33.28586H814.5134Zm49.93392,135.73525a16.68458,16.68458,0,1,1,16.68408-16.68507A16.70332,16.70332,0,0,1,852.77563,303.53867Zm110.3084,0a16.68458,16.68458,0,1,1,16.68408-16.68507A16.703,16.703,0,0,1,963.084,303.53867Z"/><path class="cls-3" d="M735.7406,122.10868H632.492a3.22653,3.22653,0,0,1,0-6.45305H735.7406a3.22653,3.22653,0,1,1,0,6.45305Z"/><path class="cls-4" d="M786.43069,188.29306H633.15723c-2.14987,0-3.89154-1.444-3.89154-3.22636s1.74167-3.22669,3.89154-3.22669H786.43069c2.14987,0,3.89194,1.44429,3.89194,3.22669S788.58056,188.29306,786.43069,188.29306Z"/><path class="cls-5" d="M766.343,154.75932H644.07238c-1.08974,0-1.97276-1.44429-1.97276-3.22669s.883-3.22636,1.97276-3.22636H766.343c1.08973,0,1.97275,1.444,1.97275,3.22636S767.4327,154.75932,766.343,154.75932Z"/></g></svg>